<?xml version="1.0" encoding="utf-8"?>
<!-- Generator: Adobe Illustrator 21.0.0, SVG Export Plug-In . SVG Version: 6.00 Build 0)  -->
<svg version="1.1" id="Layer_1" xmlns="http://www.w3.org/2000/svg" xmlns:xlink="http://www.w3.org/1999/xlink" x="0px" y="0px"
	 viewBox="0 0 57 70.8" style="enable-background:new 0 0 57 70.8;" xml:space="preserve">
<g>
	<path d="M38.9,11.3c0,0-4.4-1.8-4.4-5.8c0-0.9-0.8-1.7-1.7-1.7c-0.9,0-1.7,0.8-1.7,1.7c0,6.3,6.2,8.8,6.5,9
		c9.5,3.7,15.9,12.7,15.9,22.3c0,13.1-11.5,24.1-25.1,24.1S3.4,49.9,3.4,36.8c0-9.7,6.5-18.7,16.1-22.4c0,0,0.1,0,0.1,0
		c0.4-0.2,9.6-4.5,9.6-12.7c0-0.9-0.8-1.7-1.7-1.7c-0.9,0-1.7,0.8-1.7,1.7c0,5.7-7,9.3-7.6,9.5C7.3,15.5,0,25.7,0,36.8
		c0,12.5,9.2,23.4,21.3,26.6L19,65.7c-0.7,0.7-0.7,1.7,0,2.4c0.3,0.3,0.8,0.5,1.2,0.5c0.4,0,0.9-0.2,1.2-0.5l3.9-3.9
		c0,0,0,0,0.1-0.1c0.5,0.1,0.9,0.1,1.4,0.1v4.9c0,0.9,0.8,1.7,1.7,1.7c0.9,0,1.7-0.8,1.7-1.7v-4.9c0.5,0,0.9-0.1,1.4-0.1
		c0,0,0,0,0.1,0.1l3.9,3.9c0.3,0.3,0.8,0.5,1.2,0.5c0.4,0,0.9-0.2,1.2-0.5c0.7-0.7,0.7-1.7,0-2.4l-2.3-2.3
		C47.8,60.2,57,49.3,57,36.8C57,25.8,49.7,15.6,38.9,11.3z"/>
	<path d="M28.5,57.7c-11.6,0-21-9.4-21-21c0-11.6,9.4-21,21-21c11.6,0,21,9.4,21,21C49.5,48.3,40.1,57.7,28.5,57.7z M28.5,18.7
		c-9.9,0-18,8.1-18,18c0,9.9,8.1,18,18,18c9.9,0,18-8.1,18-18C46.5,26.8,38.4,18.7,28.5,18.7z"/>
	<path d="M28.5,50.7c-7.7,0-14-6.3-14-14s6.3-14,14-14s14,6.3,14,14S36.2,50.7,28.5,50.7z M28.5,25.7c-6.1,0-11,4.9-11,11
		s4.9,11,11,11s11-4.9,11-11S34.6,25.7,28.5,25.7z"/>
	<path d="M28.5,43.7c-3.9,0-7-3.1-7-7s3.1-7,7-7c3.9,0,7,3.1,7,7S32.3,43.7,28.5,43.7z M28.5,32.7c-2.2,0-4,1.8-4,4s1.8,4,4,4
		c2.2,0,4-1.8,4-4S30.7,32.7,28.5,32.7z"/>
</g>
<text transform="matrix(1 0 0 1 622.737 500.351)" style="font-family:'MyriadPro-Regular'; font-size:12px;">38 px</text>
</svg>
