<?xml version="1.0" encoding="utf-8"?>
<!-- Generator: Adobe Illustrator 21.0.0, SVG Export Plug-In . SVG Version: 6.00 Build 0)  -->
<svg version="1.1" id="Layer_1" xmlns="http://www.w3.org/2000/svg" xmlns:xlink="http://www.w3.org/1999/xlink" x="0px" y="0px"
	 viewBox="0 0 59.5 56.8" style="enable-background:new 0 0 59.5 56.8;" xml:space="preserve">
<g>
	<title>Звезда</title>
	<g>
		<path d="M29.5,2.4c0.2-0.5,0.5-0.5,0.6,0L36.1,21c0.2,0.6,0.7,1,1.3,1h19.6c0.6,0,0.6,0.3,0.2,0.6L41.4,34.1
			c-0.5,0.4-0.7,1-0.5,1.5l6.1,18.7c0.2,0.5-0.1,0.7-0.5,0.4L30.6,43.1c-0.5-0.3-1.1-0.3-1.6,0L13.1,54.7c-0.4,0.3-0.7,0.2-0.5-0.4
			l6.1-18.7c0.2-0.6,0-1.2-0.5-1.5L2.3,22.6C1.8,22.3,1.9,22,2.5,22h19.6c0.6,0,1.1-0.4,1.3-1L29.5,2.4z"/>
		<path d="M12.7,56.8c-0.5,0-1-0.2-1.3-0.4c-0.6-0.5-1.2-1.4-0.7-2.7l5.9-18.2L1.1,24.2c-1.1-0.8-1.2-1.9-1-2.7
			c0.2-0.8,1-1.6,2.4-1.6h19.1l5.9-18.2C28,0.5,29,0,29.8,0s1.8,0.5,2.2,1.8L37.9,20h19.1c1.4,0,2.1,0.8,2.4,1.5
			c0.2,0.7,0.1,1.8-1,2.7L42.9,35.5l5.9,18.2c0.4,1.3-0.1,2.3-0.8,2.7c-0.6,0.5-1.7,0.7-2.8-0.2L29.8,45L14.3,56.3
			C13.7,56.7,13.2,56.8,12.7,56.8z M14.5,54.9L14.5,54.9C14.5,54.9,14.5,54.9,14.5,54.9z M45,54.9C45,54.9,45,54.9,45,54.9L45,54.9z
			 M47.6,53L47.6,53C47.6,53,47.6,53,47.6,53z M7.6,24l11.7,8.5c1.2,0.9,1.6,2.4,1.3,3.7L16.1,50l11.7-8.5c1.2-0.8,2.7-0.8,3.9-0.1
			L43.4,50L39,36.3c-0.4-1.4,0.1-2.9,1.2-3.7L51.9,24l-14.5,0c-1.4-0.1-2.6-1-3.1-2.4L29.8,7.9l-4.5,13.7c-0.5,1.4-1.7,2.3-3.1,2.4
			l-0.1,0H7.6z M31.4,3L31.4,3C31.4,3,31.4,3,31.4,3L31.4,3z"/>
	</g>
</g>
</svg>
